# xmcd CD database file
#
# Track frame offsets:
#	150
#	27812
#	46569
#	65354
#	92465
#	111303
#	135620
#	159867
#
# Disc length: 2435 seconds
#
# Revision: 0
# Processed by: cddbd v1.5.2PL0 Copyright (c) Steve Scherf et al.
# Submitted via: CDex 1.79
#
DISCID=55098108
DTITLE=Helene Fischer - Nur mit Dir
DYEAR=2017
DGENRE=Schlager
TTITLE0=Nur mit Dir - Extended Mix
TTITLE1=Nur mit Dir - Stereoact Radio Remix
TTITLE2=Nur mit Dir - Mania Fox Remix
TTITLE3=Nur mit Dir - Franz Rapid Extended Mix
TTITLE4=Nur mit Dir
TTITLE5=Nur mit Dir - Sterioact Extended Remix
TTITLE6=Nur mit Dir - Mania Fox Extended Remix
TTITLE7=Nur mit Dir - Harris and Ford Remix
EXTD=YEAR: 2017
EXTT0=
EXTT1=
EXTT2=
EXTT3=
EXTT4=
EXTT5=
EXTT6=
EXTT7=
PLAYORDER=
